# MagicaVoxel @ Ephtracy

# material
mtllib char_base.mtl
usemtl palette

# normals
vn -1 0 0
vn 1 0 0
vn 0 0 1
vn 0 0 -1
vn 0 -1 0
vn 0 1 0

# texcoords
vt 0.908203 0.5
vt 0.912109 0.5
vt 0.923828 0.5
vt 0.931641 0.5
vt 0.978516 0.5

# verts
v -4 2 0.5
v -4 2 -0.5
v -4 5 0.5
v -4 5 -0.5
v -4 6 0.5
v -4 6 -0.5
v -4 7 0.5
v -4 7 -0.5
v -4 8 0.5
v -4 8 -0.5
v -3 1 1.5
v -3 1 -1.5
v -3 2 2.5
v -3 2 1.5
v -3 2 0.5
v -3 2 -0.5
v -3 2 -1.5
v -3 2 -2.5
v -3 3 2.5
v -3 3 0.5
v -3 3 -0.5
v -3 3 -2.5
v -3 5 0.5
v -3 5 -0.5
v -3 6 2.5
v -3 6 1.5
v -3 6 0.5
v -3 6 -0.5
v -3 6 -1.5
v -3 6 -2.5
v -3 7 0.5
v -3 7 -0.5
v -3 8 0.5
v -3 8 -0.5
v -3 10 1.5
v -3 10 -1.5
v -2 0 0.5
v -2 0 -0.5
v -2 1 0.5
v -2 1 -0.5
v -2 6 -1.5
v -2 6 -2.5
v -2 10 -1.5
v -2 10 -2.5
v 1 0 0.5
v 1 0 -0.5
v 1 1 1.5
v 1 1 0.5
v 1 1 -0.5
v 1 1 -1.5
v 1 2 1.5
v 1 2 -1.5
v -1 0 0.5
v -1 0 -0.5
v -1 1 1.5
v -1 1 0.5
v -1 1 -0.5
v -1 1 -1.5
v -1 2 1.5
v -1 2 -1.5
v 2 0 0.5
v 2 0 -0.5
v 2 1 0.5
v 2 1 -0.5
v 2 6 -1.5
v 2 6 -2.5
v 2 10 -1.5
v 2 10 -2.5
v 3 1 1.5
v 3 1 -1.5
v 3 2 2.5
v 3 2 1.5
v 3 2 0.5
v 3 2 -0.5
v 3 2 -1.5
v 3 2 -2.5
v 3 3 2.5
v 3 3 0.5
v 3 3 -0.5
v 3 3 -2.5
v 3 5 0.5
v 3 5 -0.5
v 3 6 2.5
v 3 6 1.5
v 3 6 0.5
v 3 6 -0.5
v 3 6 -1.5
v 3 6 -2.5
v 3 7 0.5
v 3 7 -0.5
v 3 8 0.5
v 3 8 -0.5
v 3 10 1.5
v 3 10 -1.5
v 4 2 0.5
v 4 2 -0.5
v 4 5 0.5
v 4 5 -0.5
v 4 6 0.5
v 4 6 -0.5
v 4 7 0.5
v 4 7 -0.5
v 4 8 0.5
v 4 8 -0.5
v -3 2 2.5
v -3 3 2.5
v -3 6 2.5
v 3 2 2.5
v 3 3 2.5
v 3 6 2.5
v -3 1 1.5
v -3 2 1.5
v -3 6 1.5
v -3 10 1.5
v -2 7 1.5
v -2 8 1.5
v -1 1 1.5
v -1 2 1.5
v -1 7 1.5
v -1 8 1.5
v 1 1 1.5
v 1 2 1.5
v 1 7 1.5
v 1 8 1.5
v 2 7 1.5
v 2 8 1.5
v 3 1 1.5
v 3 2 1.5
v 3 6 1.5
v 3 10 1.5
v -4 2 0.5
v -4 5 0.5
v -4 6 0.5
v -4 7 0.5
v -4 8 0.5
v -3 2 0.5
v -3 3 0.5
v -3 5 0.5
v -3 6 0.5
v -3 7 0.5
v -3 8 0.5
v -2 0 0.5
v -2 1 0.5
v -1 0 0.5
v -1 1 0.5
v 1 0 0.5
v 1 1 0.5
v 2 0 0.5
v 2 1 0.5
v 3 2 0.5
v 3 3 0.5
v 3 5 0.5
v 3 6 0.5
v 3 7 0.5
v 3 8 0.5
v 4 2 0.5
v 4 5 0.5
v 4 6 0.5
v 4 7 0.5
v 4 8 0.5
v -4 2 -0.5
v -4 5 -0.5
v -4 6 -0.5
v -4 7 -0.5
v -4 8 -0.5
v -3 2 -0.5
v -3 3 -0.5
v -3 5 -0.5
v -3 6 -0.5
v -3 7 -0.5
v -3 8 -0.5
v -2 0 -0.5
v -2 1 -0.5
v -1 0 -0.5
v -1 1 -0.5
v 1 0 -0.5
v 1 1 -0.5
v 2 0 -0.5
v 2 1 -0.5
v 3 2 -0.5
v 3 3 -0.5
v 3 5 -0.5
v 3 6 -0.5
v 3 7 -0.5
v 3 8 -0.5
v 4 2 -0.5
v 4 5 -0.5
v 4 6 -0.5
v 4 7 -0.5
v 4 8 -0.5
v -3 1 -1.5
v -3 2 -1.5
v -3 6 -1.5
v -3 10 -1.5
v -2 6 -1.5
v -2 10 -1.5
v -1 1 -1.5
v -1 2 -1.5
v 1 1 -1.5
v 1 2 -1.5
v 2 6 -1.5
v 2 10 -1.5
v 3 1 -1.5
v 3 2 -1.5
v 3 6 -1.5
v 3 10 -1.5
v -3 2 -2.5
v -3 3 -2.5
v -3 6 -2.5
v -2 6 -2.5
v -2 10 -2.5
v 2 6 -2.5
v 2 10 -2.5
v 3 2 -2.5
v 3 3 -2.5
v 3 6 -2.5
v -2 0 0.5
v -1 0 0.5
v 1 0 0.5
v 2 0 0.5
v -2 0 -0.5
v -1 0 -0.5
v 1 0 -0.5
v 2 0 -0.5
v -3 1 1.5
v -1 1 1.5
v 1 1 1.5
v 3 1 1.5
v -2 1 0.5
v -1 1 0.5
v 1 1 0.5
v 2 1 0.5
v -2 1 -0.5
v -1 1 -0.5
v 1 1 -0.5
v 2 1 -0.5
v -3 1 -1.5
v -1 1 -1.5
v 1 1 -1.5
v 3 1 -1.5
v -3 2 2.5
v 3 2 2.5
v -3 2 1.5
v -1 2 1.5
v 1 2 1.5
v 3 2 1.5
v -4 2 0.5
v -3 2 0.5
v 3 2 0.5
v 4 2 0.5
v -4 2 -0.5
v -3 2 -0.5
v 3 2 -0.5
v 4 2 -0.5
v -3 2 -1.5
v -1 2 -1.5
v 1 2 -1.5
v 3 2 -1.5
v -3 2 -2.5
v 3 2 -2.5
v -4 7 0.5
v -3 7 0.5
v 3 7 0.5
v 4 7 0.5
v -4 7 -0.5
v -3 7 -0.5
v 3 7 -0.5
v 4 7 -0.5
v -3 6 2.5
v 3 6 2.5
v -3 6 1.5
v 3 6 1.5
v -4 6 0.5
v -3 6 0.5
v 3 6 0.5
v 4 6 0.5
v -4 6 -0.5
v -3 6 -0.5
v 3 6 -0.5
v 4 6 -0.5
v -3 6 -1.5
v -2 6 -1.5
v 2 6 -1.5
v 3 6 -1.5
v -3 6 -2.5
v -2 6 -2.5
v 2 6 -2.5
v 3 6 -2.5
v -4 8 0.5
v -3 8 0.5
v 3 8 0.5
v 4 8 0.5
v -4 8 -0.5
v -3 8 -0.5
v 3 8 -0.5
v 4 8 -0.5
v -3 10 1.5
v 3 10 1.5
v -3 10 -1.5
v -2 10 -1.5
v 2 10 -1.5
v 3 10 -1.5
v -2 10 -2.5
v 2 10 -2.5

# faces
f 3/5/1 2/5/1 1/5/1
f 4/5/1 2/5/1 3/5/1
f 5/3/1 4/3/1 3/3/1
f 6/3/1 4/3/1 5/3/1
f 9/5/1 8/5/1 7/5/1
f 10/5/1 8/5/1 9/5/1
f 14/2/1 12/2/1 11/2/1
f 15/2/1 12/2/1 14/2/1
f 16/2/1 12/2/1 15/2/1
f 17/2/1 12/2/1 16/2/1
f 19/2/1 14/2/1 13/2/1
f 19/2/1 15/2/1 14/2/1
f 20/2/1 15/2/1 19/2/1
f 21/2/1 18/2/1 17/2/1
f 21/2/1 17/2/1 16/2/1
f 22/2/1 18/2/1 21/2/1
f 23/3/1 20/3/1 19/3/1
f 24/3/1 22/3/1 21/3/1
f 25/3/1 23/3/1 19/3/1
f 26/3/1 23/3/1 25/3/1
f 27/3/1 23/3/1 26/3/1
f 28/3/1 22/3/1 24/3/1
f 29/3/1 22/3/1 28/3/1
f 30/3/1 22/3/1 29/3/1
f 31/5/1 27/5/1 26/5/1
f 31/5/1 29/5/1 28/5/1
f 31/5/1 28/5/1 27/5/1
f 32/5/1 29/5/1 31/5/1
f 33/5/1 31/5/1 26/5/1
f 34/5/1 29/5/1 32/5/1
f 35/5/1 33/5/1 26/5/1
f 35/5/1 34/5/1 33/5/1
f 36/5/1 29/5/1 34/5/1
f 36/5/1 34/5/1 35/5/1
f 39/1/1 38/1/1 37/1/1
f 40/1/1 38/1/1 39/1/1
f 43/5/1 42/5/1 41/5/1
f 44/5/1 42/5/1 43/5/1
f 48/1/1 46/1/1 45/1/1
f 49/1/1 46/1/1 48/1/1
f 51/2/1 48/2/1 47/2/1
f 51/2/1 50/2/1 49/2/1
f 51/2/1 49/2/1 48/2/1
f 52/2/1 50/2/1 51/2/1
f 53/1/2 54/1/2 56/1/2
f 56/1/2 54/1/2 57/1/2
f 55/2/2 56/2/2 59/2/2
f 57/2/2 58/2/2 59/2/2
f 56/2/2 57/2/2 59/2/2
f 59/2/2 58/2/2 60/2/2
f 61/1/2 62/1/2 63/1/2
f 63/1/2 62/1/2 64/1/2
f 65/5/2 66/5/2 67/5/2
f 67/5/2 66/5/2 68/5/2
f 69/2/2 70/2/2 72/2/2
f 72/2/2 70/2/2 73/2/2
f 73/2/2 70/2/2 74/2/2
f 74/2/2 70/2/2 75/2/2
f 71/2/2 72/2/2 77/2/2
f 72/2/2 73/2/2 77/2/2
f 77/2/2 73/2/2 78/2/2
f 75/2/2 76/2/2 79/2/2
f 74/2/2 75/2/2 79/2/2
f 79/2/2 76/2/2 80/2/2
f 77/3/2 78/3/2 81/3/2
f 79/3/2 80/3/2 82/3/2
f 77/3/2 81/3/2 83/3/2
f 83/3/2 81/3/2 84/3/2
f 84/3/2 81/3/2 85/3/2
f 82/3/2 80/3/2 86/3/2
f 86/3/2 80/3/2 87/3/2
f 87/3/2 80/3/2 88/3/2
f 84/5/2 85/5/2 89/5/2
f 86/5/2 87/5/2 89/5/2
f 85/5/2 86/5/2 89/5/2
f 89/5/2 87/5/2 90/5/2
f 84/5/2 89/5/2 91/5/2
f 90/5/2 87/5/2 92/5/2
f 84/5/2 91/5/2 93/5/2
f 91/5/2 92/5/2 93/5/2
f 92/5/2 87/5/2 94/5/2
f 93/5/2 92/5/2 94/5/2
f 95/5/2 96/5/2 97/5/2
f 97/5/2 96/5/2 98/5/2
f 97/3/2 98/3/2 99/3/2
f 99/3/2 98/3/2 100/3/2
f 101/5/2 102/5/2 103/5/2
f 103/5/2 102/5/2 104/5/2
f 108/2/3 106/2/3 105/2/3
f 109/3/3 107/3/3 106/3/3
f 109/2/3 106/2/3 108/2/3
f 110/3/3 107/3/3 109/3/3
f 115/5/3 114/5/3 113/5/3
f 116/5/3 114/5/3 115/5/3
f 117/2/3 112/2/3 111/2/3
f 118/2/3 112/2/3 117/2/3
f 119/5/3 115/5/3 113/5/3
f 119/4/3 116/4/3 115/4/3
f 120/5/3 114/5/3 116/5/3
f 120/4/3 116/4/3 119/4/3
f 123/5/3 119/5/3 113/5/3
f 123/5/3 120/5/3 119/5/3
f 124/5/3 114/5/3 120/5/3
f 124/5/3 120/5/3 123/5/3
f 125/5/3 123/5/3 113/5/3
f 125/4/3 124/4/3 123/4/3
f 126/5/3 114/5/3 124/5/3
f 126/4/3 124/4/3 125/4/3
f 127/2/3 122/2/3 121/2/3
f 128/2/3 122/2/3 127/2/3
f 129/5/3 125/5/3 113/5/3
f 129/5/3 126/5/3 125/5/3
f 130/5/3 114/5/3 126/5/3
f 130/5/3 126/5/3 129/5/3
f 136/5/3 132/5/3 131/5/3
f 137/5/3 132/5/3 136/5/3
f 138/3/3 133/3/3 132/3/3
f 138/5/3 132/5/3 137/5/3
f 139/3/3 133/3/3 138/3/3
f 140/5/3 135/5/3 134/5/3
f 141/5/3 135/5/3 140/5/3
f 144/1/3 143/1/3 142/1/3
f 145/1/3 143/1/3 144/1/3
f 148/1/3 147/1/3 146/1/3
f 149/1/3 147/1/3 148/1/3
f 156/5/3 151/5/3 150/5/3
f 156/5/3 152/5/3 151/5/3
f 157/3/3 153/3/3 152/3/3
f 157/5/3 152/5/3 156/5/3
f 158/3/3 153/3/3 157/3/3
f 159/5/3 155/5/3 154/5/3
f 160/5/3 155/5/3 159/5/3
f 161/5/4 162/5/4 166/5/4
f 166/5/4 162/5/4 167/5/4
f 162/3/4 163/3/4 168/3/4
f 167/5/4 162/5/4 168/5/4
f 168/3/4 163/3/4 169/3/4
f 164/5/4 165/5/4 170/5/4
f 170/5/4 165/5/4 171/5/4
f 172/1/4 173/1/4 174/1/4
f 174/1/4 173/1/4 175/1/4
f 176/1/4 177/1/4 178/1/4
f 178/1/4 177/1/4 179/1/4
f 180/5/4 181/5/4 186/5/4
f 181/5/4 182/5/4 186/5/4
f 182/3/4 183/3/4 187/3/4
f 186/5/4 182/5/4 187/5/4
f 187/3/4 183/3/4 188/3/4
f 184/5/4 185/5/4 189/5/4
f 189/5/4 185/5/4 190/5/4
f 193/5/4 194/5/4 195/5/4
f 195/5/4 194/5/4 196/5/4
f 191/2/4 192/2/4 197/2/4
f 197/2/4 192/2/4 198/2/4
f 199/2/4 200/2/4 203/2/4
f 203/2/4 200/2/4 204/2/4
f 201/5/4 202/5/4 205/5/4
f 205/5/4 202/5/4 206/5/4
f 208/3/4 209/3/4 210/3/4
f 208/3/4 210/3/4 212/3/4
f 210/5/4 211/5/4 212/5/4
f 212/5/4 211/5/4 213/5/4
f 207/2/4 208/2/4 214/2/4
f 208/3/4 212/3/4 215/3/4
f 214/2/4 208/2/4 215/2/4
f 215/3/4 212/3/4 216/3/4
f 221/1/5 218/1/5 217/1/5
f 222/1/5 218/1/5 221/1/5
f 223/1/5 220/1/5 219/1/5
f 224/1/5 220/1/5 223/1/5
f 229/2/5 226/2/5 225/2/5
f 230/2/5 226/2/5 229/2/5
f 231/2/5 228/2/5 227/2/5
f 232/2/5 228/2/5 231/2/5
f 233/2/5 229/2/5 225/2/5
f 236/2/5 228/2/5 232/2/5
f 237/2/5 234/2/5 233/2/5
f 237/2/5 233/2/5 225/2/5
f 238/2/5 234/2/5 237/2/5
f 239/2/5 236/2/5 235/2/5
f 240/2/5 228/2/5 236/2/5
f 240/2/5 236/2/5 239/2/5
f 243/2/5 242/2/5 241/2/5
f 244/2/5 242/2/5 243/2/5
f 245/2/5 242/2/5 244/2/5
f 246/2/5 242/2/5 245/2/5
f 251/5/5 248/5/5 247/5/5
f 252/5/5 248/5/5 251/5/5
f 253/5/5 250/5/5 249/5/5
f 254/5/5 250/5/5 253/5/5
f 256/2/5 245/2/5 244/2/5
f 257/2/5 245/2/5 256/2/5
f 259/2/5 256/2/5 255/2/5
f 259/2/5 258/2/5 257/2/5
f 259/2/5 257/2/5 256/2/5
f 260/2/5 258/2/5 259/2/5
f 265/5/5 262/5/5 261/5/5
f 266/5/5 262/5/5 265/5/5
f 267/5/5 264/5/5 263/5/5
f 268/5/5 264/5/5 267/5/5
f 269/3/6 270/3/6 271/3/6
f 271/3/6 270/3/6 272/3/6
f 273/3/6 274/3/6 277/3/6
f 277/3/6 274/3/6 278/3/6
f 275/3/6 276/3/6 279/3/6
f 279/3/6 276/3/6 280/3/6
f 281/3/6 282/3/6 285/3/6
f 285/3/6 282/3/6 286/3/6
f 283/3/6 284/3/6 287/3/6
f 287/3/6 284/3/6 288/3/6
f 289/5/6 290/5/6 293/5/6
f 293/5/6 290/5/6 294/5/6
f 291/5/6 292/5/6 295/5/6
f 295/5/6 292/5/6 296/5/6
f 297/5/6 298/5/6 299/5/6
f 299/5/6 298/5/6 300/5/6
f 300/5/6 298/5/6 301/5/6
f 301/5/6 298/5/6 302/5/6
f 300/5/6 301/5/6 303/5/6
f 303/5/6 301/5/6 304/5/6
