# MagicaVoxel @ Ephtracy

# material
mtllib char_lady2.mtl
usemtl palette

# normals
vn -1 0 0
vn 1 0 0
vn 0 0 1
vn 0 0 -1
vn 0 -1 0
vn 0 1 0

# texcoords
vt 0.0175781 0.5
vt 0.0332031 0.5
vt 0.0449219 0.5
vt 0.228516 0.5
vt 0.587891 0.5
vt 0.853516 0.5
vt 0.884766 0.5
vt 0.912109 0.5
vt 0.931641 0.5
vt 0.974609 0.5

# verts
v -4 2 1
v -4 2 -0
v -4 4 3
v -4 4 2
v -4 4 -0
v -4 4 -1
v -4 5 2
v -4 5 1
v -4 5 -0
v -4 6 3
v -4 6 2
v -4 6 1
v -4 6 -0
v -4 7 1
v -4 7 -0
v -4 8 1
v -4 8 -0
v -4 10 2
v -4 10 -1
v -3 1 2
v -3 1 -1
v -3 2 3
v -3 2 2
v -3 2 1
v -3 2 -0
v -3 2 -1
v -3 2 -2
v -3 3 3
v -3 3 1
v -3 3 -0
v -3 3 -2
v -3 4 3
v -3 4 2
v -3 4 -0
v -3 4 -1
v -3 4 -2
v -3 4 -3
v -3 5 2
v -3 5 1
v -3 5 -1
v -3 5 -2
v -3 6 1
v -3 6 -0
v -3 6 -2
v -3 6 -3
v -3 7 1
v -3 7 -0
v -3 9 3
v -3 9 2
v -3 10 3
v -3 10 2
v -3 10 -1
v -3 10 -2
v -3 11 2
v -3 11 -1
v -2 0 1
v -2 0 -0
v -2 1 1
v -2 1 -0
v -2 6 -2
v -2 6 -3
v -2 10 -1
v -2 10 -2
v -2 10 -3
v -2 11 -1
v -2 11 -2
v -1 3 -2
v -1 3 -3
v -1 4 -2
v -1 4 -3
v 1 0 1
v 1 0 -0
v 1 1 2
v 1 1 1
v 1 1 -0
v 1 1 -1
v 1 2 2
v 1 2 -1
v 1 5 3
v 1 5 2
v 1 6 3
v 1 6 2
v 2 9 3
v 2 9 2
v 2 10 3
v 2 10 2
v -2 9 3
v -2 9 2
v -2 10 3
v -2 10 2
v -1 0 1
v -1 0 -0
v -1 1 2
v -1 1 1
v -1 1 -0
v -1 1 -1
v -1 2 2
v -1 2 -1
v -1 5 3
v -1 5 2
v -1 6 3
v -1 6 2
v 1 3 -2
v 1 3 -3
v 1 4 -2
v 1 4 -3
v 2 0 1
v 2 0 -0
v 2 1 1
v 2 1 -0
v 2 6 -2
v 2 6 -3
v 2 10 -1
v 2 10 -2
v 2 10 -3
v 2 11 -1
v 2 11 -2
v 3 1 2
v 3 1 -1
v 3 2 3
v 3 2 2
v 3 2 1
v 3 2 -0
v 3 2 -1
v 3 2 -2
v 3 3 3
v 3 3 1
v 3 3 -0
v 3 3 -2
v 3 4 3
v 3 4 2
v 3 4 -0
v 3 4 -1
v 3 4 -2
v 3 4 -3
v 3 5 2
v 3 5 1
v 3 5 -1
v 3 5 -2
v 3 6 1
v 3 6 -0
v 3 6 -2
v 3 6 -3
v 3 7 1
v 3 7 -0
v 3 9 3
v 3 9 2
v 3 10 3
v 3 10 2
v 3 10 -1
v 3 10 -2
v 3 11 2
v 3 11 -1
v 4 2 1
v 4 2 -0
v 4 4 3
v 4 4 2
v 4 4 -0
v 4 4 -1
v 4 5 2
v 4 5 1
v 4 5 -0
v 4 6 3
v 4 6 2
v 4 6 1
v 4 6 -0
v 4 7 1
v 4 7 -0
v 4 8 1
v 4 8 -0
v 4 10 2
v 4 10 -1
v -4 4 3
v -4 6 3
v -3 2 3
v -3 3 3
v -3 4 3
v -3 6 3
v -3 9 3
v -3 10 3
v -2 9 3
v -2 10 3
v -1 5 3
v -1 6 3
v 1 5 3
v 1 6 3
v 2 9 3
v 2 10 3
v 3 2 3
v 3 3 3
v 3 4 3
v 3 6 3
v 3 9 3
v 3 10 3
v 4 4 3
v 4 6 3
v -4 6 2
v -4 10 2
v -3 1 2
v -3 2 2
v -3 6 2
v -3 9 2
v -3 10 2
v -3 11 2
v -2 7 2
v -2 8 2
v -2 9 2
v -2 10 2
v -1 1 2
v -1 2 2
v -1 5 2
v -1 6 2
v -1 7 2
v -1 8 2
v 1 1 2
v 1 2 2
v 1 5 2
v 1 6 2
v 1 7 2
v 1 8 2
v 2 7 2
v 2 8 2
v 2 9 2
v 2 10 2
v 3 1 2
v 3 2 2
v 3 6 2
v 3 9 2
v 3 10 2
v 3 11 2
v 4 6 2
v 4 10 2
v -4 2 1
v -4 5 1
v -3 2 1
v -3 3 1
v -3 5 1
v -2 0 1
v -2 1 1
v -1 0 1
v -1 1 1
v 1 0 1
v 1 1 1
v 2 0 1
v 2 1 1
v 3 2 1
v 3 3 1
v 3 5 1
v 4 2 1
v 4 5 1
v -4 6 -0
v -4 7 -0
v -3 6 -0
v -3 7 -0
v 3 6 -0
v 3 7 -0
v 4 6 -0
v 4 7 -0
v -4 4 2
v -4 5 2
v -3 4 2
v -3 5 2
v 3 4 2
v 3 5 2
v 4 4 2
v 4 5 2
v -4 6 1
v -4 7 1
v -3 6 1
v -3 7 1
v 3 6 1
v 3 7 1
v 4 6 1
v 4 7 1
v -4 2 -0
v -4 4 -0
v -3 2 -0
v -3 3 -0
v -3 4 -0
v -2 0 -0
v -2 1 -0
v -1 0 -0
v -1 1 -0
v 1 0 -0
v 1 1 -0
v 2 0 -0
v 2 1 -0
v 3 2 -0
v 3 3 -0
v 3 4 -0
v 4 2 -0
v 4 4 -0
v -4 4 -1
v -4 10 -1
v -3 1 -1
v -3 2 -1
v -3 4 -1
v -3 5 -1
v -3 10 -1
v -3 11 -1
v -2 10 -1
v -2 11 -1
v -1 1 -1
v -1 2 -1
v 1 1 -1
v 1 2 -1
v 2 10 -1
v 2 11 -1
v 3 1 -1
v 3 2 -1
v 3 4 -1
v 3 5 -1
v 3 10 -1
v 3 11 -1
v 4 4 -1
v 4 10 -1
v -3 2 -2
v -3 3 -2
v -3 4 -2
v -3 6 -2
v -3 10 -2
v -2 6 -2
v -2 10 -2
v -2 11 -2
v -1 3 -2
v -1 4 -2
v 1 3 -2
v 1 4 -2
v 2 6 -2
v 2 10 -2
v 2 11 -2
v 3 2 -2
v 3 3 -2
v 3 4 -2
v 3 6 -2
v 3 10 -2
v -3 4 -3
v -3 6 -3
v -2 6 -3
v -2 10 -3
v -1 3 -3
v -1 4 -3
v 1 3 -3
v 1 4 -3
v 2 6 -3
v 2 10 -3
v 3 4 -3
v 3 6 -3
v -2 0 1
v -1 0 1
v 1 0 1
v 2 0 1
v -2 0 -0
v -1 0 -0
v 1 0 -0
v 2 0 -0
v -3 1 2
v -1 1 2
v 1 1 2
v 3 1 2
v -2 1 1
v -1 1 1
v 1 1 1
v 2 1 1
v -2 1 -0
v -1 1 -0
v 1 1 -0
v 2 1 -0
v -3 1 -1
v -1 1 -1
v 1 1 -1
v 3 1 -1
v -3 2 3
v 3 2 3
v -3 2 2
v -1 2 2
v 1 2 2
v 3 2 2
v -4 2 1
v -3 2 1
v 3 2 1
v 4 2 1
v -4 2 -0
v -3 2 -0
v 3 2 -0
v 4 2 -0
v -3 2 -1
v -1 2 -1
v 1 2 -1
v 3 2 -1
v -3 2 -2
v 3 2 -2
v -1 3 -2
v 1 3 -2
v -1 3 -3
v 1 3 -3
v -4 4 3
v -3 4 3
v 3 4 3
v 4 4 3
v -4 4 2
v -3 4 2
v 3 4 2
v 4 4 2
v -4 4 -0
v -3 4 -0
v 3 4 -0
v 4 4 -0
v -4 4 -1
v -3 4 -1
v 3 4 -1
v 4 4 -1
v -3 4 -2
v -1 4 -2
v 1 4 -2
v 3 4 -2
v -3 4 -3
v -1 4 -3
v 1 4 -3
v 3 4 -3
v -4 5 2
v -3 5 2
v 3 5 2
v 4 5 2
v -4 5 1
v -3 5 1
v 3 5 1
v 4 5 1
v -4 7 1
v -3 7 1
v 3 7 1
v 4 7 1
v -4 7 -0
v -3 7 -0
v 3 7 -0
v 4 7 -0
v -3 9 3
v -2 9 3
v 2 9 3
v 3 9 3
v -3 9 2
v -2 9 2
v 2 9 2
v 3 9 2
v -1 5 3
v 1 5 3
v -1 5 2
v 1 5 2
v -4 6 3
v -3 6 3
v -1 6 3
v 1 6 3
v 3 6 3
v 4 6 3
v -4 6 2
v -3 6 2
v -1 6 2
v 1 6 2
v 3 6 2
v 4 6 2
v -4 6 1
v -3 6 1
v 3 6 1
v 4 6 1
v -4 6 -0
v -3 6 -0
v 3 6 -0
v 4 6 -0
v -3 6 -2
v -2 6 -2
v 2 6 -2
v 3 6 -2
v -3 6 -3
v -2 6 -3
v 2 6 -3
v 3 6 -3
v -3 10 3
v -2 10 3
v 2 10 3
v 3 10 3
v -4 10 2
v -3 10 2
v -2 10 2
v 2 10 2
v 3 10 2
v 4 10 2
v -4 10 -1
v -3 10 -1
v -2 10 -1
v 2 10 -1
v 3 10 -1
v 4 10 -1
v -3 10 -2
v -2 10 -2
v 2 10 -2
v 3 10 -2
v -2 10 -3
v 2 10 -3
v -3 11 2
v 3 11 2
v -3 11 -1
v -2 11 -1
v 2 11 -1
v 3 11 -1
v -2 11 -2
v 2 11 -2

# faces
f 5/10/1 2/10/1 1/10/1
f 7/6/1 4/6/1 3/6/1
f 8/10/1 5/10/1 1/10/1
f 9/6/1 6/6/1 5/6/1
f 9/10/1 5/10/1 8/10/1
f 10/6/1 8/6/1 7/6/1
f 10/6/1 7/6/1 3/6/1
f 11/6/1 8/6/1 10/6/1
f 12/7/1 9/7/1 8/7/1
f 12/6/1 8/6/1 11/6/1
f 13/6/1 6/6/1 9/6/1
f 13/7/1 9/7/1 12/7/1
f 14/6/1 12/6/1 11/6/1
f 15/6/1 6/6/1 13/6/1
f 16/6/1 14/6/1 11/6/1
f 16/10/1 15/10/1 14/10/1
f 17/6/1 6/6/1 15/6/1
f 17/10/1 15/10/1 16/10/1
f 18/6/1 16/6/1 11/6/1
f 18/6/1 17/6/1 16/6/1
f 19/6/1 6/6/1 17/6/1
f 19/6/1 17/6/1 18/6/1
f 23/8/1 21/8/1 20/8/1
f 24/8/1 21/8/1 23/8/1
f 25/8/1 21/8/1 24/8/1
f 26/8/1 21/8/1 25/8/1
f 28/8/1 23/8/1 22/8/1
f 28/8/1 24/8/1 23/8/1
f 29/8/1 24/8/1 28/8/1
f 30/8/1 27/8/1 26/8/1
f 30/8/1 26/8/1 25/8/1
f 31/8/1 27/8/1 30/8/1
f 32/7/1 29/7/1 28/7/1
f 33/7/1 29/7/1 32/7/1
f 34/7/1 31/7/1 30/7/1
f 35/7/1 31/7/1 34/7/1
f 36/7/1 31/7/1 35/7/1
f 38/7/1 29/7/1 33/7/1
f 39/7/1 29/7/1 38/7/1
f 40/7/1 36/7/1 35/7/1
f 41/6/1 37/6/1 36/6/1
f 41/7/1 36/7/1 40/7/1
f 44/6/1 37/6/1 41/6/1
f 44/6/1 41/6/1 40/6/1
f 45/6/1 37/6/1 44/6/1
f 46/10/1 43/10/1 42/10/1
f 47/10/1 43/10/1 46/10/1
f 50/6/1 49/6/1 48/6/1
f 51/6/1 49/6/1 50/6/1
f 52/6/1 44/6/1 40/6/1
f 53/6/1 44/6/1 52/6/1
f 54/6/1 52/6/1 51/6/1
f 55/6/1 52/6/1 54/6/1
f 58/9/1 57/9/1 56/9/1
f 59/9/1 57/9/1 58/9/1
f 63/6/1 61/6/1 60/6/1
f 64/6/1 61/6/1 63/6/1
f 65/6/1 63/6/1 62/6/1
f 66/6/1 63/6/1 65/6/1
f 69/6/1 68/6/1 67/6/1
f 70/6/1 68/6/1 69/6/1
f 74/9/1 72/9/1 71/9/1
f 75/9/1 72/9/1 74/9/1
f 77/8/1 74/8/1 73/8/1
f 77/8/1 76/8/1 75/8/1
f 77/8/1 75/8/1 74/8/1
f 78/8/1 76/8/1 77/8/1
f 81/7/1 80/7/1 79/7/1
f 82/7/1 80/7/1 81/7/1
f 85/6/1 84/6/1 83/6/1
f 86/6/1 84/6/1 85/6/1
f 87/6/2 88/6/2 89/6/2
f 89/6/2 88/6/2 90/6/2
f 91/9/2 92/9/2 94/9/2
f 94/9/2 92/9/2 95/9/2
f 93/8/2 94/8/2 97/8/2
f 95/8/2 96/8/2 97/8/2
f 94/8/2 95/8/2 97/8/2
f 97/8/2 96/8/2 98/8/2
f 99/7/2 100/7/2 101/7/2
f 101/7/2 100/7/2 102/7/2
f 103/6/2 104/6/2 105/6/2
f 105/6/2 104/6/2 106/6/2
f 107/9/2 108/9/2 109/9/2
f 109/9/2 108/9/2 110/9/2
f 111/6/2 112/6/2 114/6/2
f 114/6/2 112/6/2 115/6/2
f 113/6/2 114/6/2 116/6/2
f 116/6/2 114/6/2 117/6/2
f 118/8/2 119/8/2 121/8/2
f 121/8/2 119/8/2 122/8/2
f 122/8/2 119/8/2 123/8/2
f 123/8/2 119/8/2 124/8/2
f 120/8/2 121/8/2 126/8/2
f 121/8/2 122/8/2 126/8/2
f 126/8/2 122/8/2 127/8/2
f 124/8/2 125/8/2 128/8/2
f 123/8/2 124/8/2 128/8/2
f 128/8/2 125/8/2 129/8/2
f 126/7/2 127/7/2 130/7/2
f 130/7/2 127/7/2 131/7/2
f 128/7/2 129/7/2 132/7/2
f 132/7/2 129/7/2 133/7/2
f 133/7/2 129/7/2 134/7/2
f 131/7/2 127/7/2 136/7/2
f 136/7/2 127/7/2 137/7/2
f 133/7/2 134/7/2 138/7/2
f 134/6/2 135/6/2 139/6/2
f 138/7/2 134/7/2 139/7/2
f 139/6/2 135/6/2 142/6/2
f 138/6/2 139/6/2 142/6/2
f 142/6/2 135/6/2 143/6/2
f 140/10/2 141/10/2 144/10/2
f 144/10/2 141/10/2 145/10/2
f 146/6/2 147/6/2 148/6/2
f 148/6/2 147/6/2 149/6/2
f 138/6/2 142/6/2 150/6/2
f 150/6/2 142/6/2 151/6/2
f 149/6/2 150/6/2 152/6/2
f 152/6/2 150/6/2 153/6/2
f 154/10/2 155/10/2 158/10/2
f 156/6/2 157/6/2 160/6/2
f 154/10/2 158/10/2 161/10/2
f 158/6/2 159/6/2 162/6/2
f 161/10/2 158/10/2 162/10/2
f 160/6/2 161/6/2 163/6/2
f 156/6/2 160/6/2 163/6/2
f 163/6/2 161/6/2 164/6/2
f 161/7/2 162/7/2 165/7/2
f 164/6/2 161/6/2 165/6/2
f 162/6/2 159/6/2 166/6/2
f 165/7/2 162/7/2 166/7/2
f 164/6/2 165/6/2 167/6/2
f 166/6/2 159/6/2 168/6/2
f 164/6/2 167/6/2 169/6/2
f 167/10/2 168/10/2 169/10/2
f 168/6/2 159/6/2 170/6/2
f 169/10/2 168/10/2 170/10/2
f 164/6/2 169/6/2 171/6/2
f 169/6/2 170/6/2 171/6/2
f 170/6/2 159/6/2 172/6/2
f 171/6/2 170/6/2 172/6/2
f 177/6/3 174/6/3 173/6/3
f 178/6/3 174/6/3 177/6/3
f 181/6/3 180/6/3 179/6/3
f 182/6/3 180/6/3 181/6/3
f 183/7/3 177/7/3 176/7/3
f 183/7/3 178/7/3 177/7/3
f 184/7/3 178/7/3 183/7/3
f 185/7/3 183/7/3 176/7/3
f 189/8/3 176/8/3 175/8/3
f 190/7/3 186/7/3 185/7/3
f 190/8/3 176/8/3 189/8/3
f 190/7/3 185/7/3 176/7/3
f 191/7/3 186/7/3 190/7/3
f 192/7/3 186/7/3 191/7/3
f 193/6/3 188/6/3 187/6/3
f 194/6/3 188/6/3 193/6/3
f 195/6/3 192/6/3 191/6/3
f 196/6/3 192/6/3 195/6/3
f 201/6/3 198/6/3 197/6/3
f 202/6/3 198/6/3 201/6/3
f 203/6/3 198/6/3 202/6/3
f 205/10/3 202/10/3 201/10/3
f 206/10/3 202/10/3 205/10/3
f 207/10/3 202/10/3 206/10/3
f 208/6/3 204/6/3 203/6/3
f 209/8/3 200/8/3 199/8/3
f 210/8/3 200/8/3 209/8/3
f 212/10/3 205/10/3 201/10/3
f 213/9/3 206/9/3 205/9/3
f 213/10/3 205/10/3 212/10/3
f 214/10/3 208/10/3 207/10/3
f 214/9/3 206/9/3 213/9/3
f 214/10/3 207/10/3 206/10/3
f 217/10/3 213/10/3 212/10/3
f 217/10/3 212/10/3 211/10/3
f 217/10/3 214/10/3 213/10/3
f 218/10/3 214/10/3 217/10/3
f 219/10/3 214/10/3 218/10/3
f 220/10/3 208/10/3 214/10/3
f 220/10/3 214/10/3 219/10/3
f 221/10/3 219/10/3 218/10/3
f 221/9/3 220/9/3 219/9/3
f 222/10/3 208/10/3 220/10/3
f 222/9/3 220/9/3 221/9/3
f 223/10/3 208/10/3 222/10/3
f 224/6/3 204/6/3 208/6/3
f 224/10/3 208/10/3 223/10/3
f 225/8/3 216/8/3 215/8/3
f 226/8/3 216/8/3 225/8/3
f 227/10/3 221/10/3 218/10/3
f 227/10/3 223/10/3 222/10/3
f 227/10/3 222/10/3 221/10/3
f 228/10/3 223/10/3 227/10/3
f 229/6/3 204/6/3 224/6/3
f 230/6/3 204/6/3 229/6/3
f 231/6/3 228/6/3 227/6/3
f 231/6/3 229/6/3 228/6/3
f 232/6/3 229/6/3 231/6/3
f 235/10/3 234/10/3 233/10/3
f 236/10/3 234/10/3 235/10/3
f 237/10/3 234/10/3 236/10/3
f 240/9/3 239/9/3 238/9/3
f 241/9/3 239/9/3 240/9/3
f 244/9/3 243/9/3 242/9/3
f 245/9/3 243/9/3 244/9/3
f 249/10/3 247/10/3 246/10/3
f 249/10/3 248/10/3 247/10/3
f 250/10/3 248/10/3 249/10/3
f 253/6/3 252/6/3 251/6/3
f 254/6/3 252/6/3 253/6/3
f 257/6/3 256/6/3 255/6/3
f 258/6/3 256/6/3 257/6/3
f 259/6/4 260/6/4 261/6/4
f 261/6/4 260/6/4 262/6/4
f 263/6/4 264/6/4 265/6/4
f 265/6/4 264/6/4 266/6/4
f 267/6/4 268/6/4 269/6/4
f 269/6/4 268/6/4 270/6/4
f 271/6/4 272/6/4 273/6/4
f 273/6/4 272/6/4 274/6/4
f 275/10/4 276/10/4 277/10/4
f 277/10/4 276/10/4 278/10/4
f 278/10/4 276/10/4 279/10/4
f 280/9/4 281/9/4 282/9/4
f 282/9/4 281/9/4 283/9/4
f 284/9/4 285/9/4 286/9/4
f 286/9/4 285/9/4 287/9/4
f 288/10/4 289/10/4 291/10/4
f 289/10/4 290/10/4 291/10/4
f 291/10/4 290/10/4 292/10/4
f 293/6/4 294/6/4 297/6/4
f 297/6/4 294/6/4 298/6/4
f 298/6/4 294/6/4 299/6/4
f 299/6/4 300/6/4 301/6/4
f 301/6/4 300/6/4 302/6/4
f 295/8/4 296/8/4 303/8/4
f 303/8/4 296/8/4 304/8/4
f 305/8/4 306/8/4 309/8/4
f 309/8/4 306/8/4 310/8/4
f 307/6/4 308/6/4 313/6/4
f 313/6/4 308/6/4 314/6/4
f 311/6/4 312/6/4 315/6/4
f 312/6/4 313/6/4 315/6/4
f 315/6/4 313/6/4 316/6/4
f 320/6/4 321/6/4 322/6/4
f 322/6/4 321/6/4 323/6/4
f 317/8/4 318/8/4 325/8/4
f 318/7/4 319/7/4 325/7/4
f 325/7/4 319/7/4 326/7/4
f 317/8/4 325/8/4 327/8/4
f 323/6/4 324/6/4 330/6/4
f 330/6/4 324/6/4 331/6/4
f 317/8/4 327/8/4 332/8/4
f 327/7/4 328/7/4 333/7/4
f 332/8/4 327/8/4 333/8/4
f 333/7/4 328/7/4 334/7/4
f 329/6/4 330/6/4 335/6/4
f 335/6/4 330/6/4 336/6/4
f 337/6/4 338/6/4 339/6/4
f 337/6/4 339/6/4 342/6/4
f 339/6/4 340/6/4 342/6/4
f 341/6/4 342/6/4 343/6/4
f 342/6/4 340/6/4 344/6/4
f 343/6/4 342/6/4 344/6/4
f 344/6/4 340/6/4 345/6/4
f 345/6/4 340/6/4 346/6/4
f 344/6/4 345/6/4 347/6/4
f 347/6/4 345/6/4 348/6/4
f 353/9/5 350/9/5 349/9/5
f 354/9/5 350/9/5 353/9/5
f 355/9/5 352/9/5 351/9/5
f 356/9/5 352/9/5 355/9/5
f 361/8/5 358/8/5 357/8/5
f 362/8/5 358/8/5 361/8/5
f 363/8/5 360/8/5 359/8/5
f 364/8/5 360/8/5 363/8/5
f 365/8/5 361/8/5 357/8/5
f 368/8/5 360/8/5 364/8/5
f 369/8/5 366/8/5 365/8/5
f 369/8/5 365/8/5 357/8/5
f 370/8/5 366/8/5 369/8/5
f 371/8/5 368/8/5 367/8/5
f 372/8/5 360/8/5 368/8/5
f 372/8/5 368/8/5 371/8/5
f 375/8/5 374/8/5 373/8/5
f 376/8/5 374/8/5 375/8/5
f 377/8/5 374/8/5 376/8/5
f 378/8/5 374/8/5 377/8/5
f 383/10/5 380/10/5 379/10/5
f 384/10/5 380/10/5 383/10/5
f 385/10/5 382/10/5 381/10/5
f 386/10/5 382/10/5 385/10/5
f 388/8/5 377/8/5 376/8/5
f 389/8/5 377/8/5 388/8/5
f 391/8/5 388/8/5 387/8/5
f 391/8/5 390/8/5 389/8/5
f 391/8/5 389/8/5 388/8/5
f 392/8/5 390/8/5 391/8/5
f 395/6/5 394/6/5 393/6/5
f 396/6/5 394/6/5 395/6/5
f 401/6/5 398/6/5 397/6/5
f 402/6/5 398/6/5 401/6/5
f 403/6/5 400/6/5 399/6/5
f 404/6/5 400/6/5 403/6/5
f 409/6/5 406/6/5 405/6/5
f 410/6/5 406/6/5 409/6/5
f 411/6/5 408/6/5 407/6/5
f 412/6/5 408/6/5 411/6/5
f 417/6/5 414/6/5 413/6/5
f 418/6/5 414/6/5 417/6/5
f 419/6/5 416/6/5 415/6/5
f 420/6/5 416/6/5 419/6/5
f 425/6/5 422/6/5 421/6/5
f 426/6/5 422/6/5 425/6/5
f 427/6/5 424/6/5 423/6/5
f 428/6/5 424/6/5 427/6/5
f 433/10/5 430/10/5 429/10/5
f 434/10/5 430/10/5 433/10/5
f 435/10/5 432/10/5 431/10/5
f 436/10/5 432/10/5 435/10/5
f 441/6/5 438/6/5 437/6/5
f 442/6/5 438/6/5 441/6/5
f 443/6/5 440/6/5 439/6/5
f 444/6/5 440/6/5 443/6/5
f 445/7/6 446/7/6 447/7/6
f 447/7/6 446/7/6 448/7/6
f 449/6/6 450/6/6 455/6/6
f 450/7/6 451/7/6 456/7/6
f 455/6/6 450/6/6 456/6/6
f 456/7/6 451/7/6 457/7/6
f 452/7/6 453/7/6 458/7/6
f 453/6/6 454/6/6 459/6/6
f 458/7/6 453/7/6 459/7/6
f 459/6/6 454/6/6 460/6/6
f 461/7/6 462/7/6 465/7/6
f 465/7/6 462/7/6 466/7/6
f 463/7/6 464/7/6 467/7/6
f 467/7/6 464/7/6 468/7/6
f 469/6/6 470/6/6 473/6/6
f 473/6/6 470/6/6 474/6/6
f 471/6/6 472/6/6 475/6/6
f 475/6/6 472/6/6 476/6/6
f 477/6/6 478/6/6 482/6/6
f 482/6/6 478/6/6 483/6/6
f 479/6/6 480/6/6 484/6/6
f 484/6/6 480/6/6 485/6/6
f 481/6/6 482/6/6 487/6/6
f 487/6/6 482/6/6 488/6/6
f 485/6/6 486/6/6 491/6/6
f 491/6/6 486/6/6 492/6/6
f 488/6/6 489/6/6 493/6/6
f 493/6/6 489/6/6 494/6/6
f 490/6/6 491/6/6 495/6/6
f 495/6/6 491/6/6 496/6/6
f 494/6/6 495/6/6 497/6/6
f 497/6/6 495/6/6 498/6/6
f 499/6/6 500/6/6 501/6/6
f 501/6/6 500/6/6 502/6/6
f 502/6/6 500/6/6 503/6/6
f 503/6/6 500/6/6 504/6/6
f 502/6/6 503/6/6 505/6/6
f 505/6/6 503/6/6 506/6/6
