# MagicaVoxel @ Ephtracy

# material
mtllib char_lady5.mtl
usemtl palette

# normals
vn -1 0 0
vn 1 0 0
vn 0 0 1
vn 0 0 -1
vn 0 -1 0
vn 0 1 0

# texcoords
vt 0.00585938 0.5
vt 0.0175781 0.5
vt 0.0332031 0.5
vt 0.0449219 0.5
vt 0.228516 0.5
vt 0.248047 0.5
vt 0.587891 0.5
vt 0.888672 0.5
vt 0.892578 0.5
vt 0.923828 0.5
vt 0.931641 0.5
vt 0.943359 0.5
vt 0.947266 0.5
vt 0.958984 0.5
vt 0.970703 0.5

# verts
v -4 2 3
v -4 2 -3
v -4 3 3
v -4 3 2
v -4 3 -0
v -4 3 -3
v -4 4 2
v -4 4 1
v -4 5 1
v -4 5 -0
v -4 6 3
v -4 6 1
v -4 6 -0
v -4 6 -1
v -4 7 3
v -4 7 2
v -4 7 1
v -4 7 -0
v -4 8 1
v -4 8 -0
v -4 10 2
v -4 10 -1
v -3 1 2
v -3 1 -1
v -3 2 2
v -3 2 -1
v -3 3 3
v -3 3 2
v -3 3 -0
v -3 3 -2
v -3 4 3
v -3 4 2
v -3 4 1
v -3 4 -0
v -3 4 -2
v -3 5 1
v -3 5 -0
v -3 6 3
v -3 6 1
v -3 6 -0
v -3 6 -1
v -3 6 -2
v -3 7 1
v -3 7 -0
v -3 7 -1
v -3 7 -2
v -3 9 3
v -3 9 2
v -3 10 3
v -3 10 2
v -3 10 -1
v -3 10 -2
v -3 11 2
v -3 11 -1
v -2 0 1
v -2 0 -0
v -2 1 1
v -2 1 -0
v -2 6 -1
v -2 6 -2
v -2 7 -1
v -2 7 -2
v -2 8 -2
v -2 8 -3
v -2 10 -1
v -2 10 -2
v -2 10 -3
v -2 11 -1
v -2 11 -2
v 1 0 1
v 1 0 -0
v 1 1 2
v 1 1 1
v 1 1 -0
v 1 1 -1
v 1 2 2
v 1 2 -1
v 1 5 3
v 1 5 2
v 1 6 3
v 1 6 2
v 2 9 3
v 2 9 2
v 2 10 3
v 2 10 2
v 3 6 3
v 3 6 2
v 3 7 3
v 3 7 2
v -3 6 3
v -3 6 2
v -3 7 3
v -3 7 2
v -2 9 3
v -2 9 2
v -2 10 3
v -2 10 2
v -1 0 1
v -1 0 -0
v -1 1 2
v -1 1 1
v -1 1 -0
v -1 1 -1
v -1 2 2
v -1 2 -1
v -1 5 3
v -1 5 2
v -1 6 3
v -1 6 2
v 2 0 1
v 2 0 -0
v 2 1 1
v 2 1 -0
v 2 6 -1
v 2 6 -2
v 2 7 -1
v 2 7 -2
v 2 8 -2
v 2 8 -3
v 2 10 -1
v 2 10 -2
v 2 10 -3
v 2 11 -1
v 2 11 -2
v 3 1 2
v 3 1 -1
v 3 2 2
v 3 2 -1
v 3 3 3
v 3 3 2
v 3 3 -0
v 3 3 -2
v 3 4 3
v 3 4 2
v 3 4 1
v 3 4 -0
v 3 4 -2
v 3 5 1
v 3 5 -0
v 3 6 3
v 3 6 1
v 3 6 -0
v 3 6 -1
v 3 6 -2
v 3 7 1
v 3 7 -0
v 3 7 -1
v 3 7 -2
v 3 9 3
v 3 9 2
v 3 10 3
v 3 10 2
v 3 10 -1
v 3 10 -2
v 3 11 2
v 3 11 -1
v 4 2 3
v 4 2 -3
v 4 3 3
v 4 3 2
v 4 3 -0
v 4 3 -3
v 4 4 2
v 4 4 1
v 4 5 1
v 4 5 -0
v 4 6 3
v 4 6 1
v 4 6 -0
v 4 6 -1
v 4 7 3
v 4 7 2
v 4 7 1
v 4 7 -0
v 4 8 1
v 4 8 -0
v 4 10 2
v 4 10 -1
v -4 2 3
v -4 3 3
v -4 6 3
v -4 7 3
v -3 3 3
v -3 4 3
v -3 6 3
v -3 7 3
v -3 9 3
v -3 10 3
v -2 9 3
v -2 10 3
v -1 5 3
v -1 6 3
v 1 5 3
v 1 6 3
v 2 9 3
v 2 10 3
v 3 3 3
v 3 4 3
v 3 6 3
v 3 7 3
v 3 9 3
v 3 10 3
v 4 2 3
v 4 3 3
v 4 6 3
v 4 7 3
v -4 3 2
v -4 4 2
v -4 7 2
v -4 10 2
v -3 1 2
v -3 2 2
v -3 3 2
v -3 4 2
v -3 6 2
v -3 7 2
v -3 9 2
v -3 10 2
v -3 11 2
v -2 7 2
v -2 8 2
v -2 9 2
v -2 10 2
v -1 1 2
v -1 2 2
v -1 5 2
v -1 6 2
v -1 7 2
v -1 8 2
v 1 1 2
v 1 2 2
v 1 5 2
v 1 6 2
v 1 7 2
v 1 8 2
v 2 7 2
v 2 8 2
v 2 9 2
v 2 10 2
v 3 1 2
v 3 2 2
v 3 3 2
v 3 4 2
v 3 6 2
v 3 7 2
v 3 9 2
v 3 10 2
v 3 11 2
v 4 3 2
v 4 4 2
v 4 7 2
v 4 10 2
v -4 4 1
v -4 5 1
v -4 6 1
v -3 4 1
v -3 5 1
v -3 6 1
v -2 0 1
v -2 1 1
v -1 0 1
v -1 1 1
v 1 0 1
v 1 1 1
v 2 0 1
v 2 1 1
v 3 4 1
v 3 5 1
v 3 6 1
v 4 4 1
v 4 5 1
v 4 6 1
v -4 6 -0
v -4 7 -0
v -3 6 -0
v -3 7 -0
v 3 6 -0
v 3 7 -0
v 4 6 -0
v 4 7 -0
v -4 6 1
v -4 7 1
v -3 6 1
v -3 7 1
v 3 6 1
v 3 7 1
v 4 6 1
v 4 7 1
v -4 3 -0
v -4 5 -0
v -4 6 -0
v -3 3 -0
v -3 4 -0
v -3 5 -0
v -3 6 -0
v -2 0 -0
v -2 1 -0
v -1 0 -0
v -1 1 -0
v 1 0 -0
v 1 1 -0
v 2 0 -0
v 2 1 -0
v 3 3 -0
v 3 4 -0
v 3 5 -0
v 3 6 -0
v 4 3 -0
v 4 5 -0
v 4 6 -0
v -4 6 -1
v -4 10 -1
v -3 1 -1
v -3 2 -1
v -3 6 -1
v -3 7 -1
v -3 10 -1
v -3 11 -1
v -2 6 -1
v -2 7 -1
v -2 10 -1
v -2 11 -1
v -1 1 -1
v -1 2 -1
v 1 1 -1
v 1 2 -1
v 2 6 -1
v 2 7 -1
v 2 10 -1
v 2 11 -1
v 3 1 -1
v 3 2 -1
v 3 6 -1
v 3 7 -1
v 3 10 -1
v 3 11 -1
v 4 6 -1
v 4 10 -1
v -3 3 -2
v -3 4 -2
v -3 6 -2
v -3 7 -2
v -3 10 -2
v -2 6 -2
v -2 7 -2
v -2 8 -2
v -2 10 -2
v -2 11 -2
v 2 6 -2
v 2 7 -2
v 2 8 -2
v 2 10 -2
v 2 11 -2
v 3 3 -2
v 3 4 -2
v 3 6 -2
v 3 7 -2
v 3 10 -2
v -4 2 -3
v -4 3 -3
v -2 8 -3
v -2 10 -3
v 2 8 -3
v 2 10 -3
v 4 2 -3
v 4 3 -3
v -2 0 1
v -1 0 1
v 1 0 1
v 2 0 1
v -2 0 -0
v -1 0 -0
v 1 0 -0
v 2 0 -0
v -3 1 2
v -1 1 2
v 1 1 2
v 3 1 2
v -2 1 1
v -1 1 1
v 1 1 1
v 2 1 1
v -2 1 -0
v -1 1 -0
v 1 1 -0
v 2 1 -0
v -3 1 -1
v -1 1 -1
v 1 1 -1
v 3 1 -1
v -4 2 3
v 4 2 3
v -3 2 2
v -1 2 2
v 1 2 2
v 3 2 2
v -3 2 -1
v -1 2 -1
v 1 2 -1
v 3 2 -1
v -4 2 -3
v 4 2 -3
v -4 6 3
v -3 6 3
v 3 6 3
v 4 6 3
v -4 6 1
v -3 6 1
v 3 6 1
v 4 6 1
v -4 6 -0
v -3 6 -0
v 3 6 -0
v 4 6 -0
v -4 6 -1
v -3 6 -1
v 3 6 -1
v 4 6 -1
v -4 7 1
v -3 7 1
v 3 7 1
v 4 7 1
v -4 7 -0
v -3 7 -0
v 3 7 -0
v 4 7 -0
v -3 7 -1
v -2 7 -1
v 2 7 -1
v 3 7 -1
v -3 7 -2
v -2 7 -2
v 2 7 -2
v 3 7 -2
v -2 8 -2
v 2 8 -2
v -2 8 -3
v 2 8 -3
v -3 9 3
v -2 9 3
v 2 9 3
v 3 9 3
v -3 9 2
v -2 9 2
v 2 9 2
v 3 9 2
v -4 3 3
v -3 3 3
v 3 3 3
v 4 3 3
v -4 3 2
v -3 3 2
v 3 3 2
v 4 3 2
v -4 3 -0
v -3 3 -0
v 3 3 -0
v 4 3 -0
v -3 3 -2
v 3 3 -2
v -4 3 -3
v 4 3 -3
v -4 4 2
v -3 4 2
v 3 4 2
v 4 4 2
v -4 4 1
v -3 4 1
v 3 4 1
v 4 4 1
v -1 5 3
v 1 5 3
v -1 5 2
v 1 5 2
v -3 6 3
v -1 6 3
v 1 6 3
v 3 6 3
v -3 6 2
v -1 6 2
v 1 6 2
v 3 6 2
v -4 6 1
v -3 6 1
v 3 6 1
v 4 6 1
v -4 6 -0
v -3 6 -0
v 3 6 -0
v 4 6 -0
v -3 6 -1
v -2 6 -1
v 2 6 -1
v 3 6 -1
v -3 6 -2
v -2 6 -2
v 2 6 -2
v 3 6 -2
v -4 7 3
v -3 7 3
v 3 7 3
v 4 7 3
v -4 7 2
v -3 7 2
v 3 7 2
v 4 7 2
v -3 10 3
v -2 10 3
v 2 10 3
v 3 10 3
v -4 10 2
v -3 10 2
v -2 10 2
v 2 10 2
v 3 10 2
v 4 10 2
v -4 10 -1
v -3 10 -1
v -2 10 -1
v 2 10 -1
v 3 10 -1
v 4 10 -1
v -3 10 -2
v -2 10 -2
v 2 10 -2
v 3 10 -2
v -2 10 -3
v 2 10 -3
v -3 11 2
v 3 11 2
v -3 11 -1
v -2 11 -1
v 2 11 -1
v 3 11 -1
v -2 11 -2
v 2 11 -2

# faces
f 3/10/1 2/10/1 1/10/1
f 4/10/1 2/10/1 3/10/1
f 5/10/1 2/10/1 4/10/1
f 6/10/1 2/10/1 5/10/1
f 7/15/1 5/15/1 4/15/1
f 8/15/1 5/15/1 7/15/1
f 9/15/1 5/15/1 8/15/1
f 10/15/1 5/15/1 9/15/1
f 12/8/1 10/8/1 9/8/1
f 13/8/1 10/8/1 12/8/1
f 15/13/1 12/13/1 11/13/1
f 16/13/1 12/13/1 15/13/1
f 17/13/1 12/13/1 16/13/1
f 18/13/1 14/13/1 13/13/1
f 19/13/1 17/13/1 16/13/1
f 19/15/1 18/15/1 17/15/1
f 20/13/1 14/13/1 18/13/1
f 20/15/1 18/15/1 19/15/1
f 21/13/1 19/13/1 16/13/1
f 21/13/1 20/13/1 19/13/1
f 22/13/1 14/13/1 20/13/1
f 22/13/1 20/13/1 21/13/1
f 25/10/1 24/10/1 23/10/1
f 26/10/1 24/10/1 25/10/1
f 31/9/1 28/9/1 27/9/1
f 32/9/1 28/9/1 31/9/1
f 34/9/1 30/9/1 29/9/1
f 35/9/1 30/9/1 34/9/1
f 36/8/1 33/8/1 32/8/1
f 36/8/1 32/8/1 31/8/1
f 37/8/1 35/8/1 34/8/1
f 38/8/1 36/8/1 31/8/1
f 39/8/1 36/8/1 38/8/1
f 40/8/1 35/8/1 37/8/1
f 41/8/1 35/8/1 40/8/1
f 42/8/1 35/8/1 41/8/1
f 43/15/1 40/15/1 39/15/1
f 44/15/1 40/15/1 43/15/1
f 49/13/1 48/13/1 47/13/1
f 50/13/1 48/13/1 49/13/1
f 51/13/1 46/13/1 45/13/1
f 52/13/1 46/13/1 51/13/1
f 53/13/1 51/13/1 50/13/1
f 54/13/1 51/13/1 53/13/1
f 57/12/1 56/12/1 55/12/1
f 58/12/1 56/12/1 57/12/1
f 61/15/1 60/15/1 59/15/1
f 62/15/1 60/15/1 61/15/1
f 66/13/1 64/13/1 63/13/1
f 67/13/1 64/13/1 66/13/1
f 68/13/1 66/13/1 65/13/1
f 69/13/1 66/13/1 68/13/1
f 73/12/1 71/12/1 70/12/1
f 74/12/1 71/12/1 73/12/1
f 76/10/1 73/10/1 72/10/1
f 76/10/1 75/10/1 74/10/1
f 76/10/1 74/10/1 73/10/1
f 77/10/1 75/10/1 76/10/1
f 80/8/1 79/8/1 78/8/1
f 81/8/1 79/8/1 80/8/1
f 84/13/1 83/13/1 82/13/1
f 85/13/1 83/13/1 84/13/1
f 88/13/1 87/13/1 86/13/1
f 89/13/1 87/13/1 88/13/1
f 90/13/2 91/13/2 92/13/2
f 92/13/2 91/13/2 93/13/2
f 94/13/2 95/13/2 96/13/2
f 96/13/2 95/13/2 97/13/2
f 98/12/2 99/12/2 101/12/2
f 101/12/2 99/12/2 102/12/2
f 100/10/2 101/10/2 104/10/2
f 102/10/2 103/10/2 104/10/2
f 101/10/2 102/10/2 104/10/2
f 104/10/2 103/10/2 105/10/2
f 106/8/2 107/8/2 108/8/2
f 108/8/2 107/8/2 109/8/2
f 110/12/2 111/12/2 112/12/2
f 112/12/2 111/12/2 113/12/2
f 114/15/2 115/15/2 116/15/2
f 116/15/2 115/15/2 117/15/2
f 118/13/2 119/13/2 121/13/2
f 121/13/2 119/13/2 122/13/2
f 120/13/2 121/13/2 123/13/2
f 123/13/2 121/13/2 124/13/2
f 125/10/2 126/10/2 127/10/2
f 127/10/2 126/10/2 128/10/2
f 129/9/2 130/9/2 133/9/2
f 133/9/2 130/9/2 134/9/2
f 131/9/2 132/9/2 136/9/2
f 136/9/2 132/9/2 137/9/2
f 134/8/2 135/8/2 138/8/2
f 133/8/2 134/8/2 138/8/2
f 136/8/2 137/8/2 139/8/2
f 133/8/2 138/8/2 140/8/2
f 140/8/2 138/8/2 141/8/2
f 139/8/2 137/8/2 142/8/2
f 142/8/2 137/8/2 143/8/2
f 143/8/2 137/8/2 144/8/2
f 141/15/2 142/15/2 145/15/2
f 145/15/2 142/15/2 146/15/2
f 149/13/2 150/13/2 151/13/2
f 151/13/2 150/13/2 152/13/2
f 147/13/2 148/13/2 153/13/2
f 153/13/2 148/13/2 154/13/2
f 152/13/2 153/13/2 155/13/2
f 155/13/2 153/13/2 156/13/2
f 157/10/2 158/10/2 159/10/2
f 159/10/2 158/10/2 160/10/2
f 160/10/2 158/10/2 161/10/2
f 161/10/2 158/10/2 162/10/2
f 160/15/2 161/15/2 163/15/2
f 163/15/2 161/15/2 164/15/2
f 164/15/2 161/15/2 165/15/2
f 165/15/2 161/15/2 166/15/2
f 165/8/2 166/8/2 168/8/2
f 168/8/2 166/8/2 169/8/2
f 167/13/2 168/13/2 171/13/2
f 171/13/2 168/13/2 172/13/2
f 172/13/2 168/13/2 173/13/2
f 169/13/2 170/13/2 174/13/2
f 172/13/2 173/13/2 175/13/2
f 173/15/2 174/15/2 175/15/2
f 174/13/2 170/13/2 176/13/2
f 175/15/2 174/15/2 176/15/2
f 172/13/2 175/13/2 177/13/2
f 175/13/2 176/13/2 177/13/2
f 176/13/2 170/13/2 178/13/2
f 177/13/2 176/13/2 178/13/2
f 183/10/3 180/10/3 179/10/3
f 185/13/3 182/13/3 181/13/3
f 186/13/3 182/13/3 185/13/3
f 189/13/3 188/13/3 187/13/3
f 190/13/3 188/13/3 189/13/3
f 191/8/3 185/8/3 184/8/3
f 192/8/3 185/8/3 191/8/3
f 193/8/3 191/8/3 184/8/3
f 197/9/3 184/9/3 183/9/3
f 197/10/3 183/10/3 179/10/3
f 198/8/3 193/8/3 184/8/3
f 198/9/3 184/9/3 197/9/3
f 198/8/3 194/8/3 193/8/3
f 199/8/3 194/8/3 198/8/3
f 201/13/3 196/13/3 195/13/3
f 202/13/3 196/13/3 201/13/3
f 203/10/3 197/10/3 179/10/3
f 204/10/3 197/10/3 203/10/3
f 205/13/3 200/13/3 199/13/3
f 206/13/3 200/13/3 205/13/3
f 213/15/3 208/15/3 207/15/3
f 214/15/3 208/15/3 213/15/3
f 216/13/3 210/13/3 209/13/3
f 217/13/3 210/13/3 216/13/3
f 218/13/3 210/13/3 217/13/3
f 220/15/3 216/15/3 215/15/3
f 220/15/3 217/15/3 216/15/3
f 221/15/3 217/15/3 220/15/3
f 222/15/3 217/15/3 221/15/3
f 223/13/3 219/13/3 218/13/3
f 224/10/3 212/10/3 211/10/3
f 225/10/3 212/10/3 224/10/3
f 227/15/3 220/15/3 215/15/3
f 228/11/3 221/11/3 220/11/3
f 228/15/3 220/15/3 227/15/3
f 229/15/3 223/15/3 222/15/3
f 229/11/3 221/11/3 228/11/3
f 229/15/3 222/15/3 221/15/3
f 232/15/3 228/15/3 227/15/3
f 232/15/3 227/15/3 226/15/3
f 232/15/3 229/15/3 228/15/3
f 233/15/3 229/15/3 232/15/3
f 234/15/3 229/15/3 233/15/3
f 235/15/3 223/15/3 229/15/3
f 235/15/3 229/15/3 234/15/3
f 236/15/3 234/15/3 233/15/3
f 236/11/3 235/11/3 234/11/3
f 237/15/3 223/15/3 235/15/3
f 237/11/3 235/11/3 236/11/3
f 238/15/3 223/15/3 237/15/3
f 239/13/3 219/13/3 223/13/3
f 239/15/3 223/15/3 238/15/3
f 240/10/3 231/10/3 230/10/3
f 241/10/3 231/10/3 240/10/3
f 244/15/3 236/15/3 233/15/3
f 244/15/3 238/15/3 237/15/3
f 244/15/3 237/15/3 236/15/3
f 245/15/3 238/15/3 244/15/3
f 246/15/3 238/15/3 245/15/3
f 247/13/3 219/13/3 239/13/3
f 248/13/3 219/13/3 247/13/3
f 249/15/3 243/15/3 242/15/3
f 250/15/3 243/15/3 249/15/3
f 251/13/3 246/13/3 245/13/3
f 251/13/3 247/13/3 246/13/3
f 252/13/3 247/13/3 251/13/3
f 256/15/3 254/15/3 253/15/3
f 257/8/3 255/8/3 254/8/3
f 257/15/3 254/15/3 256/15/3
f 258/8/3 255/8/3 257/8/3
f 261/12/3 260/12/3 259/12/3
f 262/12/3 260/12/3 261/12/3
f 265/12/3 264/12/3 263/12/3
f 266/12/3 264/12/3 265/12/3
f 270/15/3 268/15/3 267/15/3
f 271/8/3 269/8/3 268/8/3
f 271/15/3 268/15/3 270/15/3
f 272/8/3 269/8/3 271/8/3
f 275/13/3 274/13/3 273/13/3
f 276/13/3 274/13/3 275/13/3
f 279/13/3 278/13/3 277/13/3
f 280/13/3 278/13/3 279/13/3
f 281/13/4 282/13/4 283/13/4
f 283/13/4 282/13/4 284/13/4
f 285/13/4 286/13/4 287/13/4
f 287/13/4 286/13/4 288/13/4
f 289/15/4 290/15/4 292/15/4
f 292/15/4 290/15/4 293/15/4
f 290/8/4 291/8/4 294/8/4
f 293/15/4 290/15/4 294/15/4
f 294/8/4 291/8/4 295/8/4
f 296/12/4 297/12/4 298/12/4
f 298/12/4 297/12/4 299/12/4
f 300/12/4 301/12/4 302/12/4
f 302/12/4 301/12/4 303/12/4
f 304/15/4 305/15/4 308/15/4
f 305/15/4 306/15/4 308/15/4
f 306/8/4 307/8/4 309/8/4
f 308/15/4 306/15/4 309/15/4
f 309/8/4 307/8/4 310/8/4
f 311/13/4 312/13/4 315/13/4
f 315/13/4 312/13/4 316/13/4
f 316/13/4 312/13/4 317/13/4
f 315/15/4 316/15/4 319/15/4
f 319/15/4 316/15/4 320/15/4
f 317/13/4 318/13/4 321/13/4
f 321/13/4 318/13/4 322/13/4
f 313/10/4 314/10/4 323/10/4
f 323/10/4 314/10/4 324/10/4
f 325/10/4 326/10/4 331/10/4
f 331/10/4 326/10/4 332/10/4
f 327/15/4 328/15/4 333/15/4
f 333/15/4 328/15/4 334/15/4
f 329/13/4 330/13/4 335/13/4
f 335/13/4 330/13/4 336/13/4
f 333/13/4 334/13/4 337/13/4
f 334/13/4 335/13/4 337/13/4
f 337/13/4 335/13/4 338/13/4
f 340/8/4 341/8/4 344/8/4
f 342/13/4 343/13/4 345/13/4
f 345/13/4 343/13/4 346/13/4
f 346/13/4 343/13/4 347/13/4
f 340/8/4 344/8/4 349/8/4
f 344/15/4 345/15/4 349/15/4
f 345/15/4 346/15/4 349/15/4
f 349/15/4 346/15/4 350/15/4
f 350/15/4 346/15/4 351/15/4
f 347/13/4 348/13/4 352/13/4
f 352/13/4 348/13/4 353/13/4
f 339/9/4 340/9/4 354/9/4
f 340/8/4 349/8/4 355/8/4
f 354/9/4 340/9/4 355/9/4
f 355/8/4 349/8/4 356/8/4
f 350/13/4 351/13/4 357/13/4
f 351/13/4 352/13/4 357/13/4
f 357/13/4 352/13/4 358/13/4
f 361/13/4 362/13/4 363/13/4
f 363/13/4 362/13/4 364/13/4
f 359/10/4 360/10/4 365/10/4
f 365/10/4 360/10/4 366/10/4
f 371/12/5 368/12/5 367/12/5
f 372/12/5 368/12/5 371/12/5
f 373/12/5 370/12/5 369/12/5
f 374/12/5 370/12/5 373/12/5
f 379/10/5 376/10/5 375/10/5
f 380/10/5 376/10/5 379/10/5
f 381/10/5 378/10/5 377/10/5
f 382/10/5 378/10/5 381/10/5
f 383/10/5 379/10/5 375/10/5
f 386/10/5 378/10/5 382/10/5
f 387/10/5 384/10/5 383/10/5
f 387/10/5 383/10/5 375/10/5
f 388/10/5 384/10/5 387/10/5
f 389/10/5 386/10/5 385/10/5
f 390/10/5 378/10/5 386/10/5
f 390/10/5 386/10/5 389/10/5
f 393/10/5 392/10/5 391/10/5
f 394/10/5 392/10/5 393/10/5
f 395/10/5 392/10/5 394/10/5
f 396/10/5 392/10/5 395/10/5
f 397/10/5 393/10/5 391/10/5
f 398/10/5 395/10/5 394/10/5
f 399/10/5 395/10/5 398/10/5
f 400/10/5 392/10/5 396/10/5
f 401/10/5 399/10/5 398/10/5
f 401/10/5 400/10/5 399/10/5
f 401/10/5 397/10/5 391/10/5
f 401/10/5 398/10/5 397/10/5
f 402/10/5 392/10/5 400/10/5
f 402/10/5 400/10/5 401/10/5
f 407/13/5 404/13/5 403/13/5
f 408/13/5 404/13/5 407/13/5
f 409/13/5 406/13/5 405/13/5
f 410/13/5 406/13/5 409/13/5
f 415/13/5 412/13/5 411/13/5
f 416/13/5 412/13/5 415/13/5
f 417/13/5 414/13/5 413/13/5
f 418/13/5 414/13/5 417/13/5
f 423/15/5 420/15/5 419/15/5
f 424/15/5 420/15/5 423/15/5
f 425/15/5 422/15/5 421/15/5
f 426/15/5 422/15/5 425/15/5
f 431/13/5 428/13/5 427/13/5
f 432/13/5 428/13/5 431/13/5
f 433/13/5 430/13/5 429/13/5
f 434/13/5 430/13/5 433/13/5
f 437/13/5 436/13/5 435/13/5
f 438/13/5 436/13/5 437/13/5
f 443/13/5 440/13/5 439/13/5
f 444/13/5 440/13/5 443/13/5
f 445/13/5 442/13/5 441/13/5
f 446/13/5 442/13/5 445/13/5
f 447/10/6 448/10/6 451/10/6
f 451/10/6 448/10/6 452/10/6
f 449/10/6 450/10/6 453/10/6
f 453/10/6 450/10/6 454/10/6
f 455/10/6 456/10/6 459/10/6
f 457/10/6 458/10/6 460/10/6
f 455/10/6 459/10/6 461/10/6
f 459/10/6 460/10/6 461/10/6
f 460/10/6 458/10/6 462/10/6
f 461/10/6 460/10/6 462/10/6
f 463/15/6 464/15/6 467/15/6
f 467/15/6 464/15/6 468/15/6
f 465/15/6 466/15/6 469/15/6
f 469/15/6 466/15/6 470/15/6
f 471/8/6 472/8/6 473/8/6
f 473/8/6 472/8/6 474/8/6
f 475/8/6 476/8/6 479/8/6
f 479/8/6 476/8/6 480/8/6
f 477/8/6 478/8/6 481/8/6
f 481/8/6 478/8/6 482/8/6
f 483/8/6 484/8/6 487/8/6
f 487/8/6 484/8/6 488/8/6
f 485/8/6 486/8/6 489/8/6
f 489/8/6 486/8/6 490/8/6
f 491/8/6 492/8/6 495/8/6
f 495/8/6 492/8/6 496/8/6
f 493/8/6 494/8/6 497/8/6
f 497/8/6 494/8/6 498/8/6
f 499/13/6 500/13/6 503/13/6
f 503/13/6 500/13/6 504/13/6
f 501/13/6 502/13/6 505/13/6
f 505/13/6 502/13/6 506/13/6
f 507/13/6 508/13/6 512/13/6
f 512/13/6 508/13/6 513/13/6
f 509/13/6 510/13/6 514/13/6
f 514/13/6 510/13/6 515/13/6
f 511/13/6 512/13/6 517/13/6
f 517/13/6 512/13/6 518/13/6
f 515/13/6 516/13/6 521/13/6
f 521/13/6 516/13/6 522/13/6
f 518/13/6 519/13/6 523/13/6
f 523/13/6 519/13/6 524/13/6
f 520/13/6 521/13/6 525/13/6
f 525/13/6 521/13/6 526/13/6
f 524/13/6 525/13/6 527/13/6
f 527/13/6 525/13/6 528/13/6
f 529/13/6 530/13/6 531/13/6
f 531/13/6 530/13/6 532/13/6
f 532/13/6 530/13/6 533/13/6
f 533/13/6 530/13/6 534/13/6
f 532/13/6 533/13/6 535/13/6
f 535/13/6 533/13/6 536/13/6
